<svg viewBox="0 0 520 520" xmlns="http://www.w3.org/2000/svg" fill="#000000" xmlns:xlink="http://www.w3.org/1999/xlink" xml:space="preserve" ><g id="SVGRepo_bgCarrier" stroke-width="0"></g><g id="SVGRepo_tracerCarrier" stroke-linecap="round" stroke-linejoin="round"></g><g id="SVGRepo_iconCarrier"> <g transform="translate(1)"> <g> <path style="fill:#a8e5ff;" d="M485.4,110.933H24.6V24.747c0-9.387,6.827-16.213,16.213-16.213H470.04 c8.533,0,16.213,6.827,16.213,16.213v86.187H485.4z"></path> <path style="fill:#a8e5ff;" d="M374.467,503.467h93.867c9.387,0,17.067-8.533,17.067-18.773v-373.76H24.6v373.76 c0,10.24,7.68,18.773,17.067,18.773h93.867H374.467z"></path> </g> <path style="fill:#FFFFFF;" d="M24.6,484.693v-373.76V24.747c0-9.387,6.827-16.213,16.213-16.213H23.747 c-9.387,0-16.213,6.827-16.213,16.213v86.187v373.76c0,10.24,8.533,18.773,18.773,18.773h15.36 C32.28,503.467,24.6,494.933,24.6,484.693"></path> <path style="fill:#000000;" d="M486.253,8.533h-17.067c8.533,0,16.213,6.827,16.213,16.213v86.187v373.76 c0,10.24-7.68,18.773-17.067,18.773h15.36c10.24,0,18.773-8.533,18.773-18.773v-373.76V24.747 C502.467,15.36,495.64,8.533,486.253,8.533"></path> <g> <path style="fill:#00affa;" d="M84.333,59.733c0,14.507-11.093,25.6-25.6,25.6s-25.6-11.093-25.6-25.6s11.093-25.6,25.6-25.6 S84.333,45.227,84.333,59.733"></path> <path style="fill:#00affa;" d="M161.133,59.733c0,14.507-11.093,25.6-25.6,25.6s-25.6-11.093-25.6-25.6s11.093-25.6,25.6-25.6 S161.133,45.227,161.133,59.733"></path> <path style="fill:#00affa;" d="M237.933,59.733c0,14.507-11.093,25.6-25.6,25.6s-25.6-11.093-25.6-25.6s11.093-25.6,25.6-25.6 S237.933,45.227,237.933,59.733"></path> </g> <g> <path style="fill:#fffa66;" d="M459.8,307.2c0,18.773-15.36,34.133-34.133,34.133s-34.133-15.36-34.133-34.133 s15.36-34.133,34.133-34.133S459.8,288.427,459.8,307.2"></path> <path style="fill:#fffa66;" d="M263.533,384c0,18.773-15.36,34.133-34.133,34.133s-34.133-15.36-34.133-34.133 c0-18.773,15.36-34.133,34.133-34.133S263.533,365.227,263.533,384"></path> </g> <g> <path style="fill:#00affa;" d="M118.467,307.2c0,18.773-15.36,34.133-34.133,34.133S50.2,325.973,50.2,307.2 s15.36-34.133,34.133-34.133S118.467,288.427,118.467,307.2"></path> <path style="fill:#00affa;" d="M340.333,221.867c0,18.773-15.36,34.133-34.133,34.133s-34.133-15.36-34.133-34.133 s15.36-34.133,34.133-34.133S340.333,203.093,340.333,221.867"></path> </g> <path d="M58.733,93.867c-18.773,0-34.133-15.36-34.133-34.133S39.96,25.6,58.733,25.6s34.133,15.36,34.133,34.133 S77.507,93.867,58.733,93.867z M58.733,42.667c-9.387,0-17.067,7.68-17.067,17.067S49.347,76.8,58.733,76.8S75.8,69.12,75.8,59.733 S68.12,42.667,58.733,42.667z"></path> <path d="M135.533,93.867c-18.773,0-34.133-15.36-34.133-34.133S116.76,25.6,135.533,25.6s34.133,15.36,34.133,34.133 S154.307,93.867,135.533,93.867z M135.533,42.667c-9.387,0-17.067,7.68-17.067,17.067s7.68,17.067,17.067,17.067 S152.6,69.12,152.6,59.733S144.92,42.667,135.533,42.667z"></path> <path d="M212.333,93.867c-18.773,0-34.133-15.36-34.133-34.133S193.56,25.6,212.333,25.6s34.133,15.36,34.133,34.133 S231.107,93.867,212.333,93.867z M212.333,42.667c-9.387,0-17.067,7.68-17.067,17.067s7.68,17.067,17.067,17.067 S229.4,69.12,229.4,59.733S221.72,42.667,212.333,42.667z"></path> <path d="M511,119.467H-1v-94.72C-1,11.093,10.093,0,23.747,0h463.36C499.907,0,511,11.093,511,24.747V119.467z M16.067,102.4 h477.867V24.747c0-4.267-3.413-7.68-7.68-7.68H23.747c-4.267,0-7.68,3.413-7.68,7.68V102.4z"></path> <path d="M483.693,512H26.307C10.947,512-1,500.053-1,484.693V102.4h512v382.293C511,500.053,499.053,512,483.693,512z M16.067,119.467v365.227c0,5.973,4.267,10.24,10.24,10.24h457.387c5.973,0,10.24-4.267,10.24-10.24V119.467H16.067z"></path> <path d="M84.333,349.867c-23.893,0-42.667-18.773-42.667-42.667c0-23.893,18.773-42.667,42.667-42.667S127,283.307,127,307.2 C127,331.093,108.227,349.867,84.333,349.867z M84.333,281.6c-14.507,0-25.6,11.093-25.6,25.6s11.093,25.6,25.6,25.6 s25.6-11.093,25.6-25.6S98.84,281.6,84.333,281.6z"></path> <path d="M425.667,349.867c-23.893,0-42.667-18.773-42.667-42.667c0-23.893,18.773-42.667,42.667-42.667 s42.667,18.773,42.667,42.667C468.333,331.093,449.56,349.867,425.667,349.867z M425.667,281.6c-14.507,0-25.6,11.093-25.6,25.6 s11.093,25.6,25.6,25.6s25.6-11.093,25.6-25.6S440.173,281.6,425.667,281.6z"></path> <path d="M306.2,264.533c-23.893,0-42.667-18.773-42.667-42.667S282.307,179.2,306.2,179.2c23.893,0,42.667,18.773,42.667,42.667 S330.093,264.533,306.2,264.533z M306.2,196.267c-14.507,0-25.6,11.093-25.6,25.6c0,14.507,11.093,25.6,25.6,25.6 s25.6-11.093,25.6-25.6C331.8,207.36,320.707,196.267,306.2,196.267z"></path> <path d="M229.4,426.667c-23.893,0-42.667-18.773-42.667-42.667c0-23.893,18.773-42.667,42.667-42.667s42.667,18.773,42.667,42.667 C272.067,407.893,253.293,426.667,229.4,426.667z M229.4,358.4c-14.507,0-25.6,11.093-25.6,25.6c0,14.507,11.093,25.6,25.6,25.6 c14.507,0,25.6-11.093,25.6-25.6C255,369.493,243.907,358.4,229.4,358.4z"></path> <path d="M195.267,375.467c-1.707,0-2.56,0-4.267-0.853l-76.8-42.667c-4.267-2.56-5.973-7.68-3.413-11.947 c2.56-4.267,7.68-5.973,11.947-3.413l76.8,42.667c4.267,2.56,5.973,7.68,3.413,11.947 C201.24,373.76,198.68,375.467,195.267,375.467z"></path> <path d="M246.467,358.4c-0.853,0-2.56,0-3.413-0.853c-4.267-1.707-5.973-6.827-4.267-11.093l42.667-93.867 c1.707-4.267,6.827-5.973,11.093-4.267c4.267,1.707,5.973,6.827,4.267,11.093l-42.667,93.867 C252.44,356.693,249.88,358.4,246.467,358.4z"></path> <path d="M391.533,290.133c-1.707,0-3.413-0.853-5.12-1.707l-51.2-34.133c-4.267-2.56-5.12-7.68-2.56-11.947 c2.56-4.267,7.68-5.12,11.947-2.56l51.2,34.133c4.267,2.56,5.12,7.68,2.56,11.947C396.653,288.427,394.093,290.133,391.533,290.133 z"></path> </g> </g></svg>